<svg xmlns="http://www.w3.org/2000/svg" class="balloon" fill="#1E1E1E" viewBox="0 0 1015 1268" preserveAspectRatio="xMidYMid meet">
  <path d="M289.5 18.6 c-19 4.2 -32.6 13.1 -62.9 41.2l-13 11.9 -7 1.3c-12.4 2.2 -33.7 7.7 -46.1 12 -24.2 8.4 -43.3 19.2 -57.9 33.1 -21.6 20.4 -32.9 44.6 -38 81.7 -3.3 23.7 -3.7 48.5 -3.4 229.2l0.3 178.5 2.3 5.8c3.4 8.4 11.7 16.9 20.6 21.1 10.2 4.9 19.7 6.7 34.6 6.7 22.2 -0 37.1 -5 47.3 -16 6.9 -7.5 9.7 -14.4 10.6 -26.6 0.8 -10.3 0.6 -10.7 5.1 13.7 1.6 9.3 4.4 24.2 6 33.3 1.7 9.1 4.4 23.9 6 33 1.7 9.1 4.4 23.9 6 33 1.7 9.1 4.3 23.8 6 32.7 8.9 48.5 33 182.2 33 182.9 0 0.5 -8.2 0.9 -18.2 0.9 -20.4 -0 -22 0.4 -27.2 7.3 -2.3 2.9 -2.6 4.3 -2.6 10.8 0 8 1.2 10.9 6.2 14.9 5.1 3.9 9.3 5 19.7 5l10 -0 0.5 3.2c0.7 4.2 3 23.4 5.6 45.8 1 9.6 3.3 29 4.9 43 8.1 68.3 11.3 95.6 12.6 108 0.9 7.4 2.2 18.7 3 25 0.8 6.3 2.4 19.8 3.5 30 1.1 10.2 2.2 19.5 2.5 20.8l0.5 2.2 216.6 -0c172.3 -0 216.5 -0.3 216.8 -1.3 0.5 -1.8 4.5 -34.9 6.2 -51.2 0.8 -7.7 2.1 -18.7 2.9 -24.5 0.8 -5.8 2.2 -17 3 -25 0.8 -8 2.2 -19.5 3 -25.5 0.8 -6.1 2.1 -17.3 3 -25 0.8 -7.7 2.4 -21.2 3.5 -30 3.4 -27.6 11 -92.6 11 -94.5 0 -0.6 3.4 -1 9 -1 10.2 -0 13.3 -1.1 19.3 -6.8l3.7 -3.6 0 -9.1c0 -9 0 -9.1 -3.2 -12.1 -6.5 -6 -7.8 -6.4 -20.3 -6.4l-11.5 -0 0 -2.7c0 -1.5 1.4 -10.8 3 -20.7 5.3 -31.5 8.8 -52.5 12 -72.1 1.7 -10.5 4.2 -25.5 5.5 -33.5 1.3 -8 4 -24.4 6 -36.5 2 -12.1 4.7 -28.5 6 -36.5 6.4 -38.1 7.7 -46.2 9.1 -55.5 0.8 -5.5 1.6 -10.5 1.8 -11.1 0.2 -0.6 4.4 -1.4 9.6 -1.7 25.4 -1.8 51 -10.6 65.2 -22.4 10.3 -8.5 16.6 -18.4 19.9 -31 1.8 -7.3 1.9 -12.1 1.9 -125.9l0 -118.2 3.4 -8.8c3.7 -9.6 6.6 -20.4 8.8 -32.4 1.7 -9.8 1.7 -51.2 0 -63.5 -4 -28.5 -11.3 -53 -22.2 -75.4l-6.9 -14.1 22.7 -0 22.8 -0 4.9 5.1c11 11.2 31.5 22.7 44.7 25 8.1 1.3 18.3 0.2 24.1 -2.7 4.1 -2.1 9.5 -7.1 11.4 -10.7 1.4 -2.7 2 -12.7 0.9 -14.5 -0.2 -0.4 2.4 -2.1 5.9 -3.6 7.9 -3.4 15 -10.6 16.1 -16.1 1.9 -10.1 -7.1 -20 -22.3 -24.5 -4 -1.2 -4.3 -1.6 -4.3 -4.9 0 -8.9 -5.1 -16.5 -13.6 -20.2 -8.8 -3.9 -22.3 -3.4 -33.1 1.2 -7.4 3.2 -18.2 10.9 -26.7 19.1l-7.9 7.8 -37.4 -0 -37.4 -0 -8.7 -7.8c-17.6 -15.7 -30.5 -24.4 -51.7 -34.8 -16.4 -8 -32.7 -13.9 -50.5 -18.4 -27.3 -6.9 -44.8 -9 -81 -9.7 -28 -0.6 -151.9 1.2 -160.5 2.3 -4.1 0.5 -4.1 0.5 -10.4 -7.6 -10.9 -13.8 -25.2 -23.8 -41.6 -29 -5.2 -1.7 -10.3 -2.4 -20 -2.7 -15.2 -0.6 -22.8 0.7 -36.4 6.2l-9 3.6 -6.8 -3.5c-11.5 -5.7 -19.5 -7.8 -32.3 -8.2 -8 -0.3 -13.6 0.1 -18.5 1.2zm-37.8 369.4l2.2 -0 0.4 91.7c0.3 101.2 0 96.1 6.7 109.2 10 19.9 32 33.5 63.6 39.3 5.8 1 6.8 1.6 10 5.5 1.9 2.3 3.7 5.8 4 7.5 0.2 1.8 1.8 13.6 3.4 26.3 1.7 12.6 4.4 33 6 45.2 1.7 12.3 4.3 32.3 5.9 44.5 1.7 12.3 4.1 30.8 5.5 41.3 1.5 10.4 3.2 24.2 4 30.5 0.8 6.3 3.7 28.4 6.5 49 2.8 20.6 5.3 40.3 5.7 43.8l0.7 6.2 -52.6 -0c-41.8 -0 -52.6 -0.3 -53 -1.3 -0.3 -0.7 -1.2 -6 -2.2 -11.7 -0.9 -5.8 -2.7 -16.4 -4 -23.5 -1.3 -7.2 -2.6 -15 -3 -17.5 -0.3 -2.5 -1.9 -11.9 -3.5 -21 -1.6 -9.1 -4.3 -24.8 -6 -35 -1.7 -10.2 -4.2 -24.8 -5.6 -32.5 -1.3 -7.7 -3 -17.8 -3.8 -22.5 -1.7 -10.3 -4.7 -27.7 -8.7 -51 -1.6 -9.6 -4.1 -24.3 -5.5 -32.5 -1.4 -8.3 -3.8 -22.4 -5.4 -31.5 -5.2 -30.2 -9 -52.4 -10.5 -61.5 -0.8 -5 -3.1 -18.2 -5.1 -29.5 -2 -11.3 -3.7 -22.5 -3.9 -25 -0.6 -8.5 -11.6 -67.5 -13.2 -70.8 -1.5 -2.9 -1.5 -4.5 -0.5 -13.3 3.7 -31.4 14.5 -49.9 33.5 -57.1 5.6 -2.1 17.5 -3.8 22.7 -3.2 1.9 0.2 4.5 0.4 5.7 0.4zm309.3 98c5.2 0.5 10 1 10.7 1 0.9 -0 1.3 11.1 1.6 43.7 0.4 46.4 0.5 47.2 5.5 58.7 1.2 2.6 3.8 7.1 5.9 9.9l3.7 5 -1.7 15.1c-1 8.3 -3.1 26.3 -4.7 40.1 -1.6 13.7 -4.3 36.6 -6 50.7 -11.3 96 -14.4 122.4 -18.1 154.3 -1.7 14.3 -4.1 34.3 -5.2 44.5l-2.2 18.5 -71.7 0.3c-39.5 0.1 -71.8 -0 -71.8 -0.3 0 -0.2 -0.6 -5.3 -1.4 -11.2 -0.8 -5.9 -1.8 -13.7 -2.1 -17.3 -0.4 -3.6 -1.9 -17.1 -3.5 -30 -1.6 -12.9 -4.3 -35.7 -6 -50.5 -1.7 -14.9 -4.2 -35.6 -5.5 -46 -1.3 -10.5 -2.7 -22.2 -3 -26 -0.4 -3.9 -1.7 -15.1 -3 -25 -1.3 -9.9 -2.6 -21.4 -3 -25.5 -0.4 -4.1 -1.5 -13.8 -2.6 -21.4 -2.6 -19.2 -2.9 -17.7 3.4 -16 14.6 3.8 25.9 4.9 52.2 4.9 22.4 -0 27.7 -0.4 38.4 -2.3 24.9 -4.5 43 -12.4 55.1 -24.2 7.3 -7.1 11 -12.7 14.9 -22.9l2.6 -6.6 0.3 -61.8 0.3 -61.9 3.7 0.6c2 0.4 8 1.1 13.2 1.6zm69.3 141.5c2.9 0.8 10.2 2.3 16.4 3.4 9.9 1.7 11.7 2.3 15.5 5.4 13 10.6 36.7 18.7 62.2 21.3 7.6 0.8 7.3 0.1 5.1 12.5 -1.5 8.8 -6.9 40.6 -15.5 91.4 -10.1 59.4 -15 88.6 -21.5 126.7 -3.6 21.2 -6.5 38.9 -6.5 39.2 0 0.3 -23 0.6 -51.1 0.6 -48.1 -0 -51 -0.1 -50.5 -1.8 0.3 -0.9 1 -6.4 1.6 -12.2 0.7 -5.8 2.2 -18.8 3.5 -29 1.3 -10.2 2.7 -21.2 3 -24.5 0.6 -5.7 3.3 -27.7 9 -73 4.6 -36.3 7.5 -60.8 9.5 -78 1.1 -9.4 2.6 -21.7 3.4 -27.5 0.8 -5.8 1.8 -13.4 2.1 -17 0.8 -8.2 4.4 -34.7 5.1 -37.8 0.3 -1.6 1 -2.2 2 -1.8 0.8 0.3 3.8 1.2 6.7 2.1z"/>
</svg>
