<svg xmlns="http://www.w3.org/2000/svg" class="logo" preserveAspectRatio="xMidYMid meet" viewBox="0 0 436 212">
  <path class="logo__php" d="M86.574997 69.474998l-46.018997 0l-19.9 100.743996l23.630999 0l4.975002 -26.118988l22.388 0c21.143997 1.2 44.8 -16.2 44.8 -46.019005c0.000999 -17.4 -9.9 -27.4 -29.8 -28.606003zm-17.412994 55.968002l-14.925003 0l6.219002 -37.312004l16.168999 0c8.706001 0 14.9 3.7 14.9 11.194c-1.243004 21.1 -11.2 24.9 -22.4 26.118004z M111.962997 144.100006l19.899002 -100.742996l23.632004 0l-4.975998 26.119003l22.388 0c19.899994 1.2 27.4 11.2 24.9 23.630997l-8.706009 50.992996l-24.875 0l8.706009 -46.018997c1.243988 -6.2 1.2 -9.9 -7.5 -9.949997l-18.655991 0l-11.193008 55.968994l-23.630997 0z M255.237 69.474998l-46.018997 0l-19.900009 100.743996l23.632004 0l4.975006 -26.118988l22.388 0c21.143997 1.2 44.8 -16.2 44.8 -46.019005c0 -17.4 -10 -27.4 -29.9 -28.606003zm-17.412003 55.968002l-14.925003 0l6.218994 -37.312004l16.167999 0c8.707001 0 14.9 3.7 14.9 11.194c-1.243988 21.1 -11.2 24.9 -22.4 26.118004z" fill="#1E1E1E"/>
  <g class="logo__sw">
    <path class="logo__sw__rhomboid" d="M414.498169 142.375l-115.998169 0l12.5 -75l116 0" fill="#2A8EBD"/>
    <path class="logo__sw__text" d="M317.558777 118.025002c2.764008 1.7 6.6 3 11 2.971001c3.800018 0 7.3 -1.8 7.3 -5.389c0 -2.7 -2 -4.4 -6.3 -6.633003c-4.904999 -2.6 -9.6 -6.4 -9.6 -12.367996c0 -9.4 8.2 -15.1 18.3 -15.131004c5.597015 0 8.9 1.2 10.9 2.279999l-3.108002 8.291c-1.520996 -0.8 -4.8 -2.1 -8.6 -2.003998c-4.629028 0 -7 2.3 -7 4.836998c0 2.8 2.8 4.4 6.8 6.633003c5.665009 3 9.2 6.8 9.2 12.366997c0 10.4 -8.6 15.7 -18.9 15.684006c-6.425995 -0.1 -11.1 -1.7 -13.3 -3.316002l3.317993 -8.222z M357.56076 128.804001l-1.79599 -46.568001l10.087006 0l0 20.727997c0 5.7 -0.1 10.9 -0.3 15.131004l0.138 0c1.65802 -4.6 3.3 -9.3 5.5 -14.993004l8.360016 -20.865997l10.916992 0l-0.139008 20.795998c-0.069 5.6 -0.2 10.2 -0.5 14.786003l0.138 0c1.589996 -4.8 3.3 -9.8 5.2 -14.854004l8.015991 -20.727997l10.502014 0l-20.520996 46.568001l-10.848999 0l-0.276001 -19.069c-0.069 -5.5 0.1 -10.2 0.3 -15.476997l-0.139008 0c-1.65799 5 -3.3 10 -5.6 15.683998l-8.015991 18.862l-11.054016 0z" fill="white"/>
  </g>
</svg>
