<?xml version="1.0"?>
<svg class="logo logo--inverted" fill="white" preserveAspectRatio="xMidYMid meet" viewBox="0 0 436 212" xmlns="http://www.w3.org/2000/svg">
  <path d="
    M86.574997 69.474998l-46.018997 0l-19.9 100.743996l23.630999 0l4.975002 -26.118988l22.388 0c21.143997 1.243988 44.774002 -16.168007 44.774002 -46.019005c0.000999 -17.412003 -9.949005 -27.362 -29.849007 -28.606003zm-17.412994 55.968002l-14.925003 0l6.219002 -37.312004l16.168999 0c8.706001 0 14.925003 3.731003 14.925003 11.194c-1.243004 21.144005 -11.194 24.875 -22.388 26.118004z

    M111.962997 144.100006l19.899002 -100.742996l23.632004 0l-4.975998 26.119003l22.388 0c19.899994 1.243996 27.362 11.194 24.875 23.630997l-8.706009 50.992996l-24.875 0l8.706009 -46.018997c1.243988 -6.219002 1.243988 -9.949997 -7.463013 -9.949997l-18.655991 0l-11.193008 55.968994l-23.630997 0z

    M255.237 69.474998l-46.018997 0l-19.900009 100.743996l23.632004 0l4.975006 -26.118988l22.388 0c21.143997 1.243988 44.775009 -16.168007 44.775009 -46.019005c0 -17.412003 -9.950012 -27.362 -29.851013 -28.606003zm-17.412003 55.968002l-14.925003 0l6.218994 -37.312004l16.167999 0c8.707001 0 14.925995 3.731003 14.925995 11.194c-1.243988 21.144005 -11.193985 24.875 -22.387985 26.118004z"/>
  <path d="
    M414.498169 142.375l-115.998169 0l12.5 -75l116 0

    M317.558777 118.025002c2.764008 1.657997 6.632996 2.971001 10.984985 2.971001c3.800018 0 7.322998 -1.796005 7.322998 -5.389c0 -2.694 -2.002991 -4.353004 -6.286987 -6.633003c-4.904999 -2.625999 -9.604004 -6.356003 -9.604004 -12.367996c0 -9.396004 8.152008 -15.131004 18.309998 -15.131004c5.597015 0 8.912994 1.244003 10.916016 2.279999l-3.108002 8.291c-1.520996 -0.828995 -4.768005 -2.072998 -8.636993 -2.003998c-4.629028 0 -7.048004 2.279999 -7.048004 4.836998c0 2.764 2.832977 4.422005 6.770996 6.633003c5.665009 2.971001 9.187988 6.770996 9.187988 12.366997c0 10.362999 -8.56601 15.684006 -18.860992 15.684006c-6.425995 -0.068008 -11.123993 -1.727005 -13.265991 -3.316002l3.317993 -8.222z

    M357.56076 128.804001l-1.79599 -46.568001l10.087006 0l0 20.727997c0 5.665001 -0.138 10.916 -0.275024 15.131004l0.138 0c1.65802 -4.561005 3.31601 -9.328003 5.458008 -14.993004l8.360016 -20.865997l10.916992 0l-0.139008 20.795998c-0.069 5.597 -0.207001 10.226006 -0.483002 14.786003l0.138 0c1.589996 -4.836998 3.31601 -9.812004 5.182007 -14.854004l8.015991 -20.727997l10.502014 0l-20.520996 46.568001l-10.848999 0l-0.276001 -19.069c-0.069 -5.527 0.069 -10.225998 0.346008 -15.476997l-0.139008 0c-1.65799 4.974998 -3.31601 10.018997 -5.596008 15.683998l-8.015991 18.862l-11.054016 0z
    " fill-rule="evenodd"/>
</svg>
