<svg xmlns="http://www.w3.org/2000/svg" class="slides" fill="black" preserveAspectRatio="xMidYMid meet" viewBox="0 0 160 140">
  <path d="M70 11 l0 5 -32 -0 -32 -0 0 9.5 0 9.5 4.5 -0 4.5 -0 0 45.5 0 45.5 17.5 -0c9.6 -0 17.5 0.3 17.5 0.6 0 0.3 -2.9 5.3 -6.3 11.2 -3.5 5.9 -6.9 11.7 -7.6 12.9l-1.2 2.3 12.4 -0 12.4 -0 8.5 -13.3c5.9 -9.3 9 -13.2 10.3 -13.2 1.4 -0 4.2 3.8 9.8 13.3l8 13.2 14.4 -0c14.3 -0 14.4 -0 13.2 -2.1 -0.6 -1.2 -4.2 -7.3 -8 -13.5l-6.8 -11.4 17.4 -0 17.5 -0 0 -45.5 0 -45.5 5 -0 5 -0 0 -9.5 0 -9.5 -32 -0 -32 -0 0 -5 0 -5 -10 -0 -10 -0 0 5zm66 64.5l0 42.5 -56 -0 -56 -0 0 -42.5 0 -42.5 56 -0 56 -0 0 42.5z"/>
  <path d="M33 75.5 l0 32.5 46.5 -0 46.5 -0 0 -32.5 0 -32.5 -46.5 -0 -46.5 -0 0 32.5z"/>
</svg>
